<svg xmlns="http://www.w3.org/2000/svg" width="82" height="50" fill="none" viewBox="0 0 82 50">
  <rect width="82" height="50" fill="#1F1F1F" rx="8"/>
  <path fill="#1F1F1F" d="M10 9.76h40v30H10v-30Zm67 15a8 8 0 1 1-16 0 8 8 0 0 1 16 0Z"/>
  <path fill="#569CD6" fill-rule="evenodd" d="M8.5 8.26h43V23.5h9.599a8 8 0 1 1 .091 3H51.5v14.76h-43v-33Zm3 3v27h37v-27h-37ZM69 29.76a5 5 0 1 0 0-10 5 5 0 0 0 0 10Z" clip-rule="evenodd"/>
  <path fill="#4EC9B0" d="M60.196 14.88c-.656 0-1.188-.228-1.596-.684-.4-.456-.6-1.068-.6-1.836v-1.788c0-.776.2-1.392.6-1.848.4-.456.932-.684 1.596-.684.544 0 .976.156 1.296.468.32.304.48.724.48 1.26l-.336-.348h.348l-.048-1.572V6h1.5v8.76h-1.464V13.5h-.336l.336-.348c0 .536-.16.96-.48 1.272-.32.304-.752.456-1.296.456Zm.528-1.296c.384 0 .68-.112.888-.336.216-.232.324-.552.324-.96v-1.656c0-.408-.108-.724-.324-.948-.208-.232-.504-.348-.888-.348s-.684.112-.9.336c-.216.224-.324.544-.324.96v1.656c0 .416.108.736.324.96.216.224.516.336.9.336Zm7.243 1.296c-.56 0-1.048-.108-1.464-.324a2.402 2.402 0 0 1-.972-.9c-.224-.392-.336-.848-.336-1.368v-1.656c0-.52.112-.972.336-1.356.232-.392.556-.696.972-.912.416-.216.904-.324 1.464-.324.552 0 1.032.108 1.44.324.416.216.736.52.96.912.232.384.348.836.348 1.356v1.188h-4.068v.468c0 .464.112.816.336 1.056.224.232.556.348.996.348.336 0 .608-.056.816-.168a.801.801 0 0 0 .396-.516h1.476c-.112.568-.416 1.024-.912 1.368-.488.336-1.084.504-1.788.504Zm1.296-3.9v-.36c0-.456-.108-.804-.324-1.044-.216-.248-.54-.372-.972-.372-.432 0-.76.124-.984.372-.224.248-.336.6-.336 1.056v.252l2.724-.024-.108.12Zm4.927 3.78-2.171-6.6h1.536l1.26 4.008c.072.24.14.488.204.744.072.256.124.46.156.612.04-.152.092-.356.156-.612s.128-.5.192-.732l1.236-4.02h1.524l-2.16 6.6H74.19Z"/>
  <path fill="#CE9178" d="M18.89 32v-2.31h3.087V18.98H18.89v-2.31h8.82v2.31h-3.087v10.71h3.087V32h-8.82Zm12.277 0V16.67h4.557c1.036 0 1.932.196 2.688.588.77.392 1.365.945 1.785 1.659.42.714.63 1.561.63 2.541v5.733c0 .966-.21 1.813-.63 2.541a4.401 4.401 0 0 1-1.785 1.68c-.756.392-1.652.588-2.688.588h-4.557Zm2.625-2.415h1.932c.756 0 1.358-.21 1.806-.63.448-.434.672-1.022.672-1.764v-5.733c0-.728-.224-1.302-.672-1.722-.448-.434-1.05-.651-1.806-.651h-1.932v10.5Z"/>
</svg>
